<svg width="128" height="128" viewBox="0 0 128 128" fill="none" xmlns="http://www.w3.org/2000/svg">
<g clip-path="url(#clip0_1_18)">
<rect width="128" height="128" rx="64" fill="white"/>
<path d="M-3.784 110V16.56H15.8L41.784 92.08C41.528 89.3493 41.2293 86.1493 40.888 82.48C40.632 78.7253 40.4187 74.928 40.248 71.088C40.0773 67.1627 39.992 63.7493 39.992 60.848V16.56H54.584V110H35L9.272 34.48C9.44267 36.9547 9.656 39.9413 9.912 43.44C10.168 46.9387 10.3813 50.5227 10.552 54.192C10.7227 57.8613 10.808 61.232 10.808 64.304V110H-3.784ZM102.662 111.28C96.6887 111.28 91.4407 110.171 86.918 107.952C82.4807 105.648 79.0247 102.448 76.55 98.352C74.1607 94.1707 72.966 89.264 72.966 83.632V42.928C72.966 37.2107 74.1607 32.304 76.55 28.208C79.0247 24.112 82.4807 20.9547 86.918 18.736C91.4407 16.432 96.6887 15.28 102.662 15.28C108.721 15.28 113.926 16.432 118.278 18.736C122.715 20.9547 126.171 24.112 128.646 28.208C131.121 32.304 132.358 37.2107 132.358 42.928H116.23C116.23 38.4907 115.035 35.12 112.646 32.816C110.342 30.512 107.014 29.36 102.662 29.36C98.31 29.36 94.9393 30.512 92.55 32.816C90.1607 35.12 88.966 38.448 88.966 42.8V83.632C88.966 87.984 90.1607 91.3547 92.55 93.744C94.9393 96.048 98.31 97.2 102.662 97.2C107.014 97.2 110.342 96.048 112.646 93.744C115.035 91.3547 116.23 87.984 116.23 83.632H132.358C132.358 89.1787 131.121 94.0427 128.646 98.224C126.171 102.405 122.715 105.648 118.278 107.952C113.926 110.171 108.721 111.28 102.662 111.28Z" fill="black"/>
</g>
<defs>
<clipPath id="clip0_1_18">
<rect width="128" height="128" rx="64" fill="white"/>
</clipPath>
</defs>
</svg>
