<svg width="512" height="256" viewBox="0 0 512 256" fill="none" xmlns="http://www.w3.org/2000/svg">
<rect width="512" height="256" rx="120" fill="white"/>
<path d="M50.76 151V104.28H58.44L72.712 144.28C72.6267 143.213 72.52 141.912 72.392 140.376C72.3067 138.797 72.2213 137.155 72.136 135.448C72.0933 133.699 72.072 132.056 72.072 130.52V104.28H77.64V151H69.96L55.752 111C55.8373 112.024 55.9227 113.325 56.008 114.904C56.0933 116.44 56.1573 118.083 56.2 119.832C56.2853 121.539 56.328 123.181 56.328 124.76V151H50.76ZM102.575 151.64C99.8017 151.64 97.3697 151.085 95.279 149.976C93.231 148.867 91.631 147.309 90.479 145.304C89.3697 143.256 88.815 140.888 88.815 138.2V128.6C88.815 125.869 89.3697 123.501 90.479 121.496C91.631 119.491 93.231 117.933 95.279 116.824C97.3697 115.715 99.8017 115.16 102.575 115.16C105.348 115.16 107.759 115.715 109.807 116.824C111.898 117.933 113.498 119.491 114.607 121.496C115.759 123.501 116.335 125.869 116.335 128.6V134.808H94.447V138.2C94.447 140.973 95.151 143.107 96.559 144.6C97.967 146.051 99.9723 146.776 102.575 146.776C104.794 146.776 106.586 146.392 107.951 145.624C109.316 144.813 110.148 143.619 110.447 142.04H116.207C115.823 144.984 114.372 147.331 111.855 149.08C109.38 150.787 106.287 151.64 102.575 151.64ZM110.703 130.968V128.6C110.703 125.827 109.999 123.693 108.591 122.2C107.226 120.707 105.22 119.96 102.575 119.96C99.9723 119.96 97.967 120.707 96.559 122.2C95.151 123.693 94.447 125.827 94.447 128.6V130.456H111.151L110.703 130.968ZM137.878 151.64C134.166 151.64 131.243 150.701 129.11 148.824C126.977 146.904 125.91 144.323 125.91 141.08C125.91 137.795 126.977 135.213 129.11 133.336C131.243 131.459 134.123 130.52 137.75 130.52H148.63V127C148.63 124.824 147.969 123.16 146.646 122.008C145.366 120.813 143.531 120.216 141.142 120.216C139.051 120.216 137.302 120.664 135.894 121.56C134.486 122.413 133.675 123.587 133.462 125.08H127.702C128.086 122.051 129.515 119.64 131.99 117.848C134.465 116.056 137.558 115.16 141.27 115.16C145.323 115.16 148.523 116.205 150.87 118.296C153.217 120.387 154.39 123.224 154.39 126.808V151H148.758V144.28H147.798L148.758 143.32C148.758 145.88 147.755 147.907 145.75 149.4C143.787 150.893 141.163 151.64 137.878 151.64ZM139.286 147.096C142.017 147.096 144.257 146.413 146.006 145.048C147.755 143.683 148.63 141.933 148.63 139.8V134.808H137.878C135.958 134.808 134.443 135.341 133.334 136.408C132.225 137.475 131.67 138.925 131.67 140.76C131.67 142.723 132.331 144.28 133.654 145.432C135.019 146.541 136.897 147.096 139.286 147.096ZM183.165 151C180.136 151 177.768 150.189 176.061 148.568C174.397 146.947 173.565 144.664 173.565 141.72V121.048H163.645V115.8H173.565V105.88H179.325V115.8H193.405V121.048H179.325V141.72C179.325 144.408 180.605 145.752 183.165 145.752H192.765V151H183.165ZM217.956 151.64C215.14 151.64 212.687 151.107 210.596 150.04C208.548 148.973 206.948 147.437 205.796 145.432C204.687 143.384 204.132 140.973 204.132 138.2V117.08C204.132 114.264 204.687 111.853 205.796 109.848C206.948 107.843 208.548 106.307 210.596 105.24C212.687 104.173 215.14 103.64 217.956 103.64C220.772 103.64 223.204 104.195 225.252 105.304C227.3 106.371 228.879 107.907 229.988 109.912C231.097 111.917 231.652 114.307 231.652 117.08H225.892C225.892 114.435 225.188 112.408 223.78 111C222.415 109.549 220.473 108.824 217.956 108.824C215.439 108.824 213.455 109.528 212.004 110.936C210.596 112.344 209.892 114.371 209.892 117.016V138.2C209.892 140.845 210.596 142.893 212.004 144.344C213.455 145.752 215.439 146.456 217.956 146.456C220.473 146.456 222.415 145.752 223.78 144.344C225.188 142.893 225.892 140.845 225.892 138.2H231.652C231.652 140.931 231.097 143.32 229.988 145.368C228.879 147.373 227.3 148.931 225.252 150.04C223.204 151.107 220.772 151.64 217.956 151.64ZM253.003 151.64C249.291 151.64 246.368 150.701 244.235 148.824C242.102 146.904 241.035 144.323 241.035 141.08C241.035 137.795 242.102 135.213 244.235 133.336C246.368 131.459 249.248 130.52 252.875 130.52H263.755V127C263.755 124.824 263.094 123.16 261.771 122.008C260.491 120.813 258.656 120.216 256.267 120.216C254.176 120.216 252.427 120.664 251.019 121.56C249.611 122.413 248.8 123.587 248.587 125.08H242.827C243.211 122.051 244.64 119.64 247.115 117.848C249.59 116.056 252.683 115.16 256.395 115.16C260.448 115.16 263.648 116.205 265.995 118.296C268.342 120.387 269.515 123.224 269.515 126.808V151H263.883V144.28H262.923L263.883 143.32C263.883 145.88 262.88 147.907 260.875 149.4C258.912 150.893 256.288 151.64 253.003 151.64ZM254.411 147.096C257.142 147.096 259.382 146.413 261.131 145.048C262.88 143.683 263.755 141.933 263.755 139.8V134.808H253.003C251.083 134.808 249.568 135.341 248.459 136.408C247.35 137.475 246.795 138.925 246.795 140.76C246.795 142.723 247.456 144.28 248.779 145.432C250.144 146.541 252.022 147.096 254.411 147.096ZM293.362 151.512C290.973 151.512 288.882 151.149 287.09 150.424C285.341 149.656 283.933 148.589 282.866 147.224C281.842 145.859 281.223 144.237 281.01 142.36H286.77C287.026 143.597 287.709 144.579 288.818 145.304C289.97 146.029 291.485 146.392 293.362 146.392H296.05C298.311 146.392 299.997 145.944 301.106 145.048C302.215 144.109 302.77 142.872 302.77 141.336C302.77 139.843 302.258 138.669 301.234 137.816C300.253 136.92 298.781 136.323 296.818 136.024L292.082 135.256C288.626 134.659 286.045 133.592 284.338 132.056C282.674 130.477 281.842 128.195 281.842 125.208C281.842 122.051 282.845 119.619 284.85 117.912C286.855 116.163 289.863 115.288 293.874 115.288H296.306C299.677 115.288 302.386 116.077 304.434 117.656C306.482 119.235 307.719 121.368 308.146 124.056H302.386C302.13 122.947 301.49 122.072 300.466 121.432C299.442 120.749 298.055 120.408 296.306 120.408H293.874C291.698 120.408 290.098 120.813 289.074 121.624C288.093 122.435 287.602 123.651 287.602 125.272C287.602 126.723 288.029 127.789 288.882 128.472C289.735 129.155 291.079 129.645 292.914 129.944L297.65 130.712C301.447 131.309 304.199 132.419 305.906 134.04C307.655 135.661 308.53 138.008 308.53 141.08C308.53 144.323 307.485 146.883 305.394 148.76C303.346 150.595 300.231 151.512 296.05 151.512H293.362ZM333.081 151.64C330.265 151.64 327.79 151.107 325.657 150.04C323.566 148.973 321.945 147.437 320.793 145.432C319.641 143.384 319.065 140.973 319.065 138.2V128.6C319.065 125.784 319.641 123.373 320.793 121.368C321.945 119.363 323.566 117.827 325.657 116.76C327.79 115.693 330.265 115.16 333.081 115.16C337.134 115.16 340.398 116.248 342.873 118.424C345.348 120.6 346.649 123.565 346.777 127.32H341.017C340.889 125.059 340.121 123.331 338.713 122.136C337.348 120.899 335.47 120.28 333.081 120.28C330.564 120.28 328.558 121.005 327.065 122.456C325.572 123.864 324.825 125.891 324.825 128.536V138.2C324.825 140.845 325.572 142.893 327.065 144.344C328.558 145.795 330.564 146.52 333.081 146.52C335.47 146.52 337.348 145.901 338.713 144.664C340.121 143.427 340.889 141.699 341.017 139.48H346.777C346.649 143.235 345.348 146.2 342.873 148.376C340.398 150.552 337.134 151.64 333.081 151.64ZM368.128 151.64C364.416 151.64 361.493 150.701 359.36 148.824C357.227 146.904 356.16 144.323 356.16 141.08C356.16 137.795 357.227 135.213 359.36 133.336C361.493 131.459 364.373 130.52 368 130.52H378.88V127C378.88 124.824 378.219 123.16 376.896 122.008C375.616 120.813 373.781 120.216 371.392 120.216C369.301 120.216 367.552 120.664 366.144 121.56C364.736 122.413 363.925 123.587 363.712 125.08H357.952C358.336 122.051 359.765 119.64 362.24 117.848C364.715 116.056 367.808 115.16 371.52 115.16C375.573 115.16 378.773 116.205 381.12 118.296C383.467 120.387 384.64 123.224 384.64 126.808V151H379.008V144.28H378.048L379.008 143.32C379.008 145.88 378.005 147.907 376 149.4C374.037 150.893 371.413 151.64 368.128 151.64ZM369.536 147.096C372.267 147.096 374.507 146.413 376.256 145.048C378.005 143.683 378.88 141.933 378.88 139.8V134.808H368.128C366.208 134.808 364.693 135.341 363.584 136.408C362.475 137.475 361.92 138.925 361.92 140.76C361.92 142.723 362.581 144.28 363.904 145.432C365.269 146.541 367.147 147.096 369.536 147.096ZM407.527 151.64C404.028 151.64 401.191 150.467 399.015 148.12C396.882 145.773 395.815 142.595 395.815 138.584V128.28C395.815 124.227 396.882 121.027 399.015 118.68C401.148 116.333 403.986 115.16 407.527 115.16C410.428 115.16 412.754 115.949 414.503 117.528C416.252 119.107 417.127 121.219 417.127 123.864L415.975 122.52H417.255L417.127 114.52V104.28H422.887V151H417.127V144.28H415.975L417.127 142.936C417.127 145.624 416.252 147.757 414.503 149.336C412.754 150.872 410.428 151.64 407.527 151.64ZM409.447 146.648C411.836 146.648 413.714 145.901 415.079 144.408C416.444 142.915 417.127 140.845 417.127 138.2V128.6C417.127 125.955 416.444 123.885 415.079 122.392C413.714 120.899 411.836 120.152 409.447 120.152C407.015 120.152 405.095 120.877 403.687 122.328C402.279 123.779 401.575 125.869 401.575 128.6V138.2C401.575 140.931 402.279 143.021 403.687 144.472C405.095 145.923 407.015 146.648 409.447 146.648ZM447.95 151.64C445.177 151.64 442.745 151.085 440.654 149.976C438.606 148.867 437.006 147.309 435.854 145.304C434.745 143.256 434.19 140.888 434.19 138.2V128.6C434.19 125.869 434.745 123.501 435.854 121.496C437.006 119.491 438.606 117.933 440.654 116.824C442.745 115.715 445.177 115.16 447.95 115.16C450.723 115.16 453.134 115.715 455.182 116.824C457.273 117.933 458.873 119.491 459.982 121.496C461.134 123.501 461.71 125.869 461.71 128.6V134.808H439.822V138.2C439.822 140.973 440.526 143.107 441.934 144.6C443.342 146.051 445.347 146.776 447.95 146.776C450.169 146.776 451.961 146.392 453.326 145.624C454.691 144.813 455.523 143.619 455.822 142.04H461.582C461.198 144.984 459.747 147.331 457.23 149.08C454.755 150.787 451.662 151.64 447.95 151.64ZM456.078 130.968V128.6C456.078 125.827 455.374 123.693 453.966 122.2C452.601 120.707 450.595 119.96 447.95 119.96C445.347 119.96 443.342 120.707 441.934 122.2C440.526 123.693 439.822 125.827 439.822 128.6V130.456H456.526L456.078 130.968Z" fill="black"/>
</svg>
