<svg fill="none" height="28" viewBox="-4 -3 28 28" width="28" xmlns="http://www.w3.org/2000/svg"><path clip-rule="evenodd" d="M11.4543 0.57673C10.6367 -0.192243 9.36268 -0.192243 8.54506 0.57673C8.32637 0.782411 8.16034 1.02439 8.04831 1.28507C5.15456 2.16211 2.95337 4.98641 2.95337 9.02451C2.95337 11.5989 2.43523 13.0088 1.50386 14.0231C1.34774 14.1932 0.916209 14.5907 0.615976 14.8672L0.606968 14.8755C0.473023 14.9988 0.36361 15.0996 0.32825 15.1353C0.117918 15.3488 0 15.6366 0 15.9365V16.8182C0 18.0499 0.997501 19.0484 2.22798 19.0484H6.02266C6.25635 20.0788 6.85117 20.7805 7.86371 21.399C9.17545 22.2003 10.8246 22.2003 12.1363 21.399C13.0402 20.8469 13.659 20.0088 13.9332 19.0484H17.772C19.0025 19.0484 20 18.0499 20 16.8182V15.9365C20 15.6366 19.8821 15.3488 19.6717 15.1353C19.6393 15.1023 19.5346 15.0057 19.4047 14.8858L19.3957 14.8774C19.0964 14.601 18.6562 14.1944 18.4977 14.021C17.5653 13.0015 17.0466 11.5896 17.0466 9.02451C17.0466 4.99735 14.8421 2.16726 11.9518 1.28678C11.8398 1.02545 11.6735 0.782862 11.4543 0.57673ZM5.23288 9.02443C5.23288 5.36859 7.4756 3.27961 9.99972 3.27961C12.5164 3.27961 14.7666 5.37977 14.7666 9.02443C14.7666 12.1121 15.4681 14.0882 16.8158 15.5618C17.0166 15.7814 17.4287 16.1673 17.7199 16.4361V16.7662H2.27951V16.4367C2.5689 16.1707 2.98177 15.7855 3.1821 15.5673C4.53162 14.0975 5.23288 12.1218 5.23288 9.02443ZM9.05127 19.451C8.80844 19.3027 8.63654 19.1769 8.51305 19.0484H11.4142C11.2879 19.2029 11.1323 19.3389 10.9488 19.451C10.3662 19.8069 9.63382 19.8069 9.05127 19.451Z" fill="#3a0078" fill-rule="evenodd"></path></svg>